<?xml version="1.0" encoding="UTF-8"?><svg id="Layer_1" xmlns="http://www.w3.org/2000/svg" viewBox="0 0 199.1 168.3"><defs><style>.cls-1{fill:#d3cb80;}</style></defs><path class="cls-1" d="M41.27,14.69c12-3.76,49.05,20.27,75.2,16.96,26.15-3.31,50.86-13.57,74.85-24.49-14.92,21.72-29.32,44.28-37.12,69.46-7.8,25.17-4.26,52.97,3.65,77-21.23,3.48-49.05-20.27-75.2-16.96-26.15,3.31-50.86,13.57-74.85,24.49,14.92-21.72,29.32-44.28,37.12-69.46,7.8-25.17,8.4-53.56-3.65-77Z"/><path class="cls-1" d="M43.26,21.92c.81-.19,.74-.21-.23-.07,.44-.04,.89-.06,1.33-.06,.03,0,2.27,.12,1.02-.01,2.12,.23,4.25,.87,6.29,1.46,5.28,1.52,10.42,3.5,15.57,5.41,11.7,4.33,23.48,8.6,35.92,10.22,14.71,1.91,29.92-2,43.94-6.23,16.49-4.98,32.35-11.87,48.01-18.99l-10.26-10.26c-15.37,22.4-30.31,45.85-38.13,72.11s-4.39,54.53,3.9,80.13l5.24-9.23c-10.32,1.45-21.78-4.47-31.07-8.14-11.46-4.52-23.22-9.03-35.69-9.38-14.09-.4-29.07,4.12-42.32,8.48-14.62,4.8-28.76,10.97-42.76,17.33l10.26,10.26c15.99-23.31,31.48-47.77,39.05-75.29,7.17-26.06,6.65-54.28-5.58-78.74-4.32-8.63-17.26-1.05-12.95,7.57C58.73,66.32,28.11,118.29,1.32,157.36c-4.68,6.82,4.14,13.05,10.26,10.26,13.39-6.08,26.9-11.9,40.92-16.39,12.62-4.04,27.24-8.75,40.63-7.09,22.95,2.85,42.84,20.05,66.7,16.7,3.9-.55,6.36-5.75,5.24-9.23-7.71-23.8-11.02-49.61-3.37-73.87s21.79-45.96,36.09-66.81c4.68-6.82-4.14-13.05-10.26-10.26-15.05,6.84-30.29,13.35-46.19,18-13.31,3.9-27.19,7.4-41.03,4.6-11.85-2.4-23.12-6.97-34.45-11.08-8.08-2.93-17.87-7.11-26.6-4.75-9.31,2.52-5.36,16.99,3.99,14.46Z"/></svg>